<svg xmlns="http://www.w3.org/2000/svg" width="24" height="24" fill="none" viewBox="0 0 24 24"><rect width="24" height="24" fill="#6C2DC7" rx="6"/><path fill="#fff" d="M16.5 7.5C16.7761 7.5 17 7.72386 17 8C17 8.27614 16.7761 8.5 16.5 8.5C16.2239 8.5 16 8.27614 16 8C16 7.72386 16.2239 7.5 16.5 7.5ZM12 9.5C10.067 9.5 8.5 11.067 8.5 13C8.5 14.933 10.067 16.5 12 16.5C13.933 16.5 15.5 14.933 15.5 13C15.5 11.067 13.933 9.5 12 9.5ZM12 15.5C10.6193 15.5 9.5 14.3807 9.5 13C9.5 11.6193 10.6193 10.5 12 10.5C13.3807 10.5 14.5 11.6193 14.5 13C14.5 14.3807 13.3807 15.5 12 15.5ZM17.5 8.5C17.5 8.22386 17.2761 8 17 8C16.7239 8 16.5 8.22386 16.5 8.5C16.5 8.77614 16.7239 9 17 9C17.2761 9 17.5 8.77614 17.5 8.5ZM12 7C8.68629 7 6 9.68629 6 13C6 16.3137 8.68629 19 12 19C15.3137 19 18 16.3137 18 13C18 9.68629 15.3137 7 12 7Z"/></svg>