<svg xmlns="http://www.w3.org/2000/svg" width="24" height="24" fill="none" viewBox="0 0 24 24"><rect width="24" height="24" fill="#6C2DC7" rx="6"/><path fill="#fff" d="M8.5 17V10.5H6V17H8.5ZM7.25 9.5C8.05228 9.5 8.75 8.80228 8.75 8C8.75 7.19772 8.05228 6.5 7.25 6.5C6.44772 6.5 5.75 7.19772 5.75 8C5.75 8.80228 6.44772 9.5 7.25 9.5ZM10 17H12.5V13.5C12.5 12.9477 12.9477 12.5 13.5 12.5C14.0523 12.5 14.5 12.9477 14.5 13.5V17H17V13.25C17 11.4551 15.5449 10 13.75 10C11.9551 10 10.5 11.4551 10.5 13.25V17H10Z"/></svg>