<svg width="24" height="24" viewBox="0 0 24 24" fill="none" xmlns="http://www.w3.org/2000/svg">
  <rect width="24" height="24" rx="6" fill="#6C2DC7"/>
  <path d="M12 7C9.23858 7 7 9.23858 7 12C7 12.7956 7.23214 13.5587 7.65685 14.2426L7 17L9.75736 16.3431C10.4413 16.7679 11.2044 17 12 17C14.7614 17 17 14.7614 17 12C17 9.23858 14.7614 7 12 7ZM12 15.5C11.2044 15.5 10.4413 15.2679 9.75736 14.8431L9.5 14.7L8.5 15L8.8 14L8.65685 13.7574C8.23214 13.0736 8 12.3105 8 11.5C8 9.567 9.567 8 11.5 8C13.433 8 15 9.567 15 11.5C15 13.433 13.433 15 11.5 15C11.3105 15 11.0736 14.7679 10.8431 14.7574L10.7 14.5L10 14.8L10.3 14L10.7574 13.6569C11.4413 13.2321 12.2044 13 13 13C14.7614 13 17 10.7614 17 8C17 5.23858 14.7614 3 12 3Z" fill="white"/>
</svg>
